<svg width="530" height="142" viewBox="0 0 530 142" fill="none" xmlns="http://www.w3.org/2000/svg">
<path d="M450.439 135.768H443.089C443.03 135.768 443 135.73 443 135.653L443.022 119.359C443.022 119.297 443.052 119.266 443.111 119.266H450.417C450.476 119.266 450.506 119.305 450.506 119.382V122.034C450.506 122.096 450.476 122.127 450.417 122.127H445.754V125.832H450.417C450.476 125.832 450.506 125.863 450.506 125.925L450.528 128.612C450.528 128.673 450.499 128.704 450.439 128.704H445.754V132.85H450.439C450.499 132.85 450.528 132.889 450.528 132.966V135.676C450.528 135.738 450.499 135.768 450.439 135.768Z" fill="white"/>
<path d="M457.323 136C456.516 136 455.772 135.784 455.091 135.351C454.417 134.919 453.877 134.344 453.47 133.626C453.07 132.9 452.87 132.105 452.87 131.24V130.152C452.87 130.067 452.907 130.025 452.981 130.025H455.535C455.594 130.025 455.624 130.067 455.624 130.152V131.24C455.624 131.758 455.79 132.205 456.123 132.584C456.456 132.954 456.856 133.14 457.323 133.14C457.796 133.14 458.2 132.95 458.533 132.572C458.866 132.186 459.032 131.742 459.032 131.24C459.032 130.661 458.67 130.156 457.944 129.723C457.826 129.646 457.67 129.554 457.478 129.446C457.293 129.33 457.071 129.198 456.812 129.052C456.553 128.905 456.301 128.762 456.057 128.623C455.812 128.477 455.576 128.338 455.346 128.206C454.517 127.697 453.899 127.06 453.492 126.296C453.092 125.524 452.892 124.659 452.892 123.702C452.892 122.822 453.1 122.026 453.514 121.316C453.929 120.614 454.469 120.058 455.135 119.649C455.809 119.232 456.538 119.023 457.323 119.023C458.129 119.023 458.87 119.232 459.543 119.649C460.217 120.073 460.753 120.637 461.153 121.339C461.56 122.042 461.764 122.829 461.764 123.702V125.647C461.764 125.709 461.734 125.74 461.675 125.74H459.121C459.062 125.74 459.032 125.709 459.032 125.647L459.01 123.702C459.01 123.146 458.844 122.694 458.511 122.347C458.177 121.999 457.781 121.826 457.323 121.826C456.856 121.826 456.456 122.011 456.123 122.381C455.79 122.752 455.624 123.192 455.624 123.702C455.624 124.219 455.727 124.651 455.935 124.999C456.149 125.346 456.538 125.678 457.1 125.995C457.16 126.025 457.297 126.103 457.511 126.226C457.726 126.35 457.963 126.489 458.222 126.643C458.488 126.79 458.729 126.925 458.944 127.048C459.158 127.164 459.288 127.234 459.332 127.257C460.087 127.697 460.683 128.237 461.12 128.878C461.564 129.519 461.786 130.306 461.786 131.24C461.786 132.144 461.586 132.954 461.187 133.672C460.779 134.39 460.239 134.958 459.565 135.375C458.892 135.792 458.144 136 457.323 136Z" fill="white"/>
<path d="M469.125 135.768H466.56C466.493 135.768 466.46 135.73 466.46 135.653V122.127H463.506C463.432 122.127 463.395 122.088 463.395 122.011L463.417 119.359C463.417 119.297 463.447 119.266 463.506 119.266H472.145C472.226 119.266 472.267 119.297 472.267 119.359V122.011C472.267 122.088 472.237 122.127 472.178 122.127H469.191L469.213 135.653C469.213 135.73 469.184 135.768 469.125 135.768Z" fill="white"/>
<path d="M476.952 135.768H474.376C474.316 135.768 474.287 135.738 474.287 135.676V132.989C474.287 132.927 474.316 132.896 474.376 132.896H476.952C477.011 132.896 477.04 132.927 477.04 132.989V135.676C477.04 135.738 477.011 135.768 476.952 135.768Z" fill="white"/>
<path d="M494.793 135.768H486.31C486.236 135.768 486.199 135.73 486.199 135.653V132.966C486.199 132.935 486.214 132.904 486.243 132.873L491.862 124.837C491.965 124.69 492.05 124.505 492.117 124.281C492.191 124.049 492.228 123.848 492.228 123.678C492.228 123.215 492.069 122.791 491.751 122.405C491.432 122.019 491.029 121.826 490.54 121.826C490.074 121.826 489.678 122.011 489.352 122.381C489.027 122.752 488.864 123.223 488.864 123.794V124.952C488.864 125.03 488.827 125.068 488.753 125.068H486.199C486.14 125.068 486.11 125.03 486.11 124.952V123.794C486.11 122.906 486.321 122.1 486.743 121.374C487.158 120.648 487.702 120.073 488.375 119.649C489.049 119.216 489.771 119 490.54 119C491.355 119 492.099 119.216 492.772 119.649C493.438 120.089 493.971 120.664 494.371 121.374C494.778 122.084 494.982 122.852 494.982 123.678C494.982 124.196 494.893 124.725 494.715 125.265C494.545 125.798 494.308 126.272 494.005 126.689L489.685 132.873H494.793C494.86 132.873 494.893 132.904 494.893 132.966V135.653C494.893 135.73 494.86 135.768 494.793 135.768Z" fill="white"/>
<path d="M502.198 136C501.236 136 500.381 135.784 499.633 135.351C498.893 134.919 498.312 134.344 497.89 133.626C497.475 132.9 497.268 132.105 497.268 131.24L497.29 123.725C497.29 122.845 497.501 122.053 497.923 121.351C498.338 120.641 498.915 120.073 499.655 119.649C500.396 119.216 501.243 119 502.198 119C503.175 119 504.026 119.212 504.752 119.637C505.477 120.062 506.047 120.633 506.462 121.351C506.884 122.061 507.095 122.852 507.095 123.725L507.117 131.24C507.117 132.097 506.91 132.889 506.495 133.614C506.073 134.34 505.492 134.919 504.752 135.351C504.019 135.784 503.168 136 502.198 136ZM504.363 131.24L504.341 123.725C504.341 123.169 504.141 122.717 503.741 122.37C503.349 122.022 502.835 121.849 502.198 121.849C501.547 121.849 501.025 122.022 500.633 122.37C500.24 122.717 500.044 123.169 500.044 123.725V131.24C500.044 131.827 500.24 132.29 500.633 132.63C501.025 132.97 501.547 133.14 502.198 133.14C502.835 133.14 503.353 132.97 503.753 132.63C504.16 132.29 504.363 131.827 504.363 131.24Z" fill="white"/>
<path d="M517.909 135.768H509.426C509.352 135.768 509.315 135.73 509.315 135.653V132.966C509.315 132.935 509.329 132.904 509.359 132.873L514.977 124.837C515.081 124.69 515.166 124.505 515.233 124.281C515.307 124.049 515.344 123.848 515.344 123.678C515.344 123.215 515.185 122.791 514.866 122.405C514.548 122.019 514.145 121.826 513.656 121.826C513.19 121.826 512.794 122.011 512.468 122.381C512.142 122.752 511.979 123.223 511.979 123.794V124.952C511.979 125.03 511.942 125.068 511.868 125.068H509.315C509.255 125.068 509.226 125.03 509.226 124.952V123.794C509.226 122.906 509.437 122.1 509.859 121.374C510.273 120.648 510.817 120.073 511.491 119.649C512.164 119.216 512.886 119 513.656 119C514.47 119 515.214 119.216 515.888 119.649C516.554 120.089 517.087 120.664 517.487 121.374C517.894 122.084 518.097 122.852 518.097 123.678C518.097 124.196 518.009 124.725 517.831 125.265C517.661 125.798 517.424 126.272 517.12 126.689L512.801 132.873H517.909C517.975 132.873 518.009 132.904 518.009 132.966V135.653C518.009 135.73 517.975 135.768 517.909 135.768Z" fill="white"/>
<path d="M528.811 135.768H520.328C520.254 135.768 520.217 135.73 520.217 135.653V132.966C520.217 132.935 520.232 132.904 520.262 132.873L525.88 124.837C525.984 124.69 526.069 124.505 526.135 124.281C526.209 124.049 526.246 123.848 526.246 123.678C526.246 123.215 526.087 122.791 525.769 122.405C525.451 122.019 525.047 121.826 524.559 121.826C524.092 121.826 523.696 122.011 523.371 122.381C523.045 122.752 522.882 123.223 522.882 123.794V124.952C522.882 125.03 522.845 125.068 522.771 125.068H520.217C520.158 125.068 520.128 125.03 520.128 124.952V123.794C520.128 122.906 520.339 122.1 520.761 121.374C521.176 120.648 521.72 120.073 522.393 119.649C523.067 119.216 523.789 119 524.559 119C525.373 119 526.117 119.216 526.79 119.649C527.457 120.089 527.99 120.664 528.389 121.374C528.796 122.084 529 122.852 529 123.678C529 124.196 528.911 124.725 528.734 125.265C528.563 125.798 528.326 126.272 528.023 126.689L523.704 132.873H528.811C528.878 132.873 528.911 132.904 528.911 132.966V135.653C528.911 135.73 528.878 135.768 528.811 135.768Z" fill="white"/>
<path d="M96.7751 141.966L77.8369 141.962C56.3491 141.995 36.8818 134.046 22.7989 121.201C8.7153 108.318 0 90.5772 0 70.9974C0 51.4228 8.7153 33.6769 22.7989 20.8272C36.8825 7.94899 56.3498 0 77.8369 0L204.153 0.0188293C225.635 0.023941 245.097 7.96812 259.18 20.8084C273.279 33.6347 282 51.3846 282 70.9877C282 90.5719 273.28 108.313 259.196 121.163C245.143 134.017 225.671 141.961 204.153 141.966L118.264 142V125.327H204.153C220.578 125.36 235.486 119.254 246.274 109.41C257.051 99.5986 263.715 86.0022 263.715 70.9877C263.715 55.9828 257.041 42.3966 246.274 32.576C235.501 22.7132 220.594 16.6263 204.153 16.6263L77.8369 16.64C61.3909 16.6735 46.4884 22.7608 35.721 32.5806C24.9434 42.3917 18.2801 55.983 18.2801 70.9974C18.2801 86.0068 24.9442 99.6034 35.7057 109.429C46.4885 119.235 61.3909 125.322 77.8369 125.322L96.7751 125.361V141.967V141.966ZM115.942 142H99.0965V125.327H115.942V142ZM115.942 123.195H99.0965V106.522H115.942V123.195ZM115.942 104.395H99.0965V87.7224H115.942V104.395ZM96.7751 123.195H77.8369C62.0593 123.195 47.7578 117.345 37.4056 107.907C27.0219 98.4321 20.6073 85.3882 20.6073 70.998C20.6073 56.6078 27.0219 43.5642 37.3696 34.1218C47.7585 24.651 62.06 18.8006 77.8376 18.8006L204.153 18.824C219.936 18.7911 234.237 24.6418 244.585 34.079C254.974 43.5214 261.383 56.5791 261.383 70.9883C261.383 85.3836 254.974 98.4273 244.621 107.87C234.273 117.345 219.952 123.195 204.153 123.195H118.264V106.522H204.153C214.91 106.522 224.652 102.543 231.704 96.1156C238.745 89.7076 243.103 80.8134 243.103 70.9877C243.103 61.1767 238.745 52.2876 231.704 45.865C224.673 39.4379 214.921 35.4634 204.153 35.4634L77.8376 35.44C67.0702 35.4728 57.3189 39.4478 50.2771 45.861C43.2463 52.2829 38.8883 61.1775 38.8883 70.998C38.8883 80.8185 43.2463 89.7129 50.2771 96.1356C57.3189 102.549 67.071 106.523 77.8376 106.523H96.7759V123.197L96.7751 123.195ZM96.7751 104.395H77.8369C67.7746 104.395 58.6191 100.653 51.9808 94.6081C45.3176 88.5213 41.2133 80.1702 41.2133 70.9929C41.2133 61.7776 45.3168 53.4215 51.9441 47.3771C58.5714 41.3326 67.7319 37.5898 77.8412 37.5898H204.151C214.261 37.5898 223.421 41.3326 230.048 47.3771C236.676 53.4215 240.779 61.7768 240.779 70.9929C240.779 80.2082 236.675 88.5644 230.048 94.6081C223.421 100.653 214.261 104.395 204.151 104.395H118.262V87.7224H204.151C209.219 87.7224 213.82 85.8419 217.131 82.8222C220.437 79.8025 222.504 75.61 222.504 70.9929C222.504 66.3757 220.437 62.1838 217.131 59.1641C213.82 56.1445 209.219 54.2628 204.151 54.2628H77.8412C72.7737 54.2628 68.1773 56.1437 64.8669 59.1641C61.5559 62.1838 59.4935 66.3757 59.4935 70.9929C59.4935 75.6334 61.5353 79.8207 64.8302 82.8222C68.1567 85.8608 72.7473 87.7224 77.836 87.7224H96.7744V104.395H96.7751Z" fill="white"/>
<path d="M403.276 135.997H392.883C392.732 135.997 392.656 135.903 392.656 135.714L392.77 95.8672C392.77 95.7161 392.845 95.6406 392.996 95.6406H404.154C406.326 95.6406 408.299 96.1693 410.073 97.2266C411.81 98.2839 413.179 99.6904 414.18 101.446C415.18 103.183 415.681 105.071 415.681 107.11C415.681 108.772 415.303 110.32 414.548 111.755C413.793 113.19 412.896 114.351 411.857 115.238C412.971 116.352 413.84 117.646 414.463 119.118C415.086 120.591 415.397 122.139 415.397 123.763C415.397 126.009 414.859 128.058 413.783 129.908C412.688 131.758 411.225 133.241 409.394 134.354C407.562 135.45 405.523 135.997 403.276 135.997ZM404.154 102.522H399.736V111.642H404.154C405.495 111.642 406.58 111.17 407.411 110.226C408.242 109.263 408.657 108.224 408.657 107.11C408.657 105.883 408.214 104.816 407.326 103.91C406.439 102.985 405.382 102.522 404.154 102.522ZM403.276 118.665H399.736L399.68 128.917H403.276C404.674 128.917 405.872 128.407 406.873 127.388C407.874 126.368 408.374 125.16 408.374 123.763C408.374 122.366 407.874 121.167 406.873 120.166C405.872 119.165 404.674 118.665 403.276 118.665Z" fill="white"/>
<path d="M374.333 136.563C372.294 136.563 370.406 136.035 368.669 134.978C366.932 133.92 365.544 132.504 364.506 130.729C363.486 128.936 362.977 126.982 362.977 124.867L363.09 95.8672C363.09 95.7161 363.165 95.6406 363.316 95.6406H369.83C369.981 95.6406 370.057 95.7161 370.057 95.8672V124.867C370.057 126.17 370.472 127.284 371.303 128.209C372.133 129.115 373.144 129.568 374.333 129.568C375.579 129.568 376.618 129.115 377.448 128.209C378.279 127.284 378.694 126.17 378.694 124.867V95.8672C378.694 95.7161 378.77 95.6406 378.921 95.6406H385.435C385.586 95.6406 385.661 95.7161 385.661 95.8672L385.774 124.867C385.774 127.001 385.265 128.964 384.245 130.758C383.207 132.533 381.828 133.949 380.11 135.006C378.392 136.044 376.466 136.563 374.333 136.563Z" fill="white"/>
<path d="M357.256 135.997H338.508C338.357 135.997 338.281 135.903 338.281 135.714L338.338 95.9238C338.338 95.735 338.432 95.6406 338.621 95.6406H345.078C345.267 95.6406 345.361 95.735 345.361 95.9238L345.305 128.86H357.256C357.445 128.86 357.539 128.955 357.539 129.144V135.714C357.539 135.903 357.445 135.997 357.256 135.997Z" fill="white"/>
<path d="M320.356 136.566C318.261 136.566 316.344 136.038 314.607 134.98C312.889 133.923 311.521 132.507 310.501 130.732C309.5 128.939 309 126.947 309 124.757L309.057 106.66C309.057 104.508 309.548 102.563 310.529 100.826C311.511 99.0703 312.861 97.6637 314.579 96.6064C316.316 95.5303 318.242 94.9922 320.356 94.9922C322.509 94.9922 324.425 95.5114 326.105 96.5498C327.805 97.5882 329.155 98.9948 330.155 100.77C331.175 102.525 331.685 104.489 331.685 106.66V109.322C331.685 109.473 331.609 109.549 331.458 109.549H324.944C324.793 109.549 324.718 109.473 324.718 109.322V106.66C324.718 105.376 324.302 104.272 323.472 103.347C322.641 102.422 321.603 101.959 320.356 101.959C318.978 101.959 317.921 102.431 317.185 103.375C316.448 104.319 316.08 105.414 316.08 106.66V124.757C316.08 126.173 316.495 127.334 317.326 128.24C318.157 129.128 319.167 129.571 320.356 129.571C321.603 129.571 322.641 129.08 323.472 128.099C324.302 127.098 324.718 125.984 324.718 124.757V122.066C324.718 121.915 324.793 121.84 324.944 121.84H331.515C331.666 121.84 331.741 121.915 331.741 122.066V124.757C331.741 126.928 331.231 128.91 330.212 130.704C329.174 132.479 327.805 133.904 326.105 134.98C324.406 136.038 322.49 136.566 320.356 136.566Z" fill="white"/>
<path d="M481.769 90.5664C479.673 90.5664 477.785 90.0472 476.104 89.0088C474.405 87.9704 473.036 86.5732 471.998 84.8174C470.979 83.0615 470.469 81.098 470.469 78.9268V60.5469C470.469 58.4323 470.988 56.5065 472.026 54.7695C473.046 53.0137 474.415 51.6165 476.133 50.5781C477.851 49.5208 479.729 48.9922 481.769 48.9922C483.902 48.9922 485.828 49.502 487.546 50.5215C489.264 51.5599 490.623 52.9476 491.624 54.6846C492.644 56.4215 493.153 58.3757 493.153 60.5469V63.209C493.153 63.36 493.059 63.4355 492.87 63.4355H486.356C486.205 63.4355 486.13 63.36 486.13 63.209V61C486.13 59.5273 485.715 58.3096 484.884 57.3467C484.053 56.3838 483.015 55.9023 481.769 55.9023C480.655 55.9023 479.663 56.3649 478.795 57.29C477.926 58.2152 477.492 59.3008 477.492 60.5469V78.9268C477.492 80.1917 477.917 81.2868 478.767 82.2119C479.616 83.1182 480.617 83.5713 481.769 83.5713C483.015 83.5713 484.053 83.1276 484.884 82.2402C485.715 81.334 486.13 80.2295 486.13 78.9268V76.0664H482.08C481.872 76.0664 481.769 75.972 481.769 75.7832V69.2979C481.769 69.109 481.872 69.0146 482.08 69.0146H492.927C493.078 69.0146 493.153 69.109 493.153 69.2979V78.9268C493.153 81.098 492.644 83.0615 491.624 84.8174C490.586 86.5732 489.217 87.9704 487.518 89.0088C485.818 90.0472 483.902 90.5664 481.769 90.5664Z" fill="white"/>
<path d="M448.237 89.9971H442.432C442.13 89.9971 441.979 89.8649 441.979 89.6006L441.922 50.0938C441.922 49.7917 442.073 49.6406 442.375 49.6406H447.614L457.413 72.4951L457.13 50.0938C457.13 49.7917 457.3 49.6406 457.64 49.6406H463.389C463.615 49.6406 463.729 49.7917 463.729 50.0938L463.785 89.6572C463.785 89.8838 463.691 89.9971 463.502 89.9971H458.404L448.351 68.6436L448.775 89.5439C448.775 89.846 448.596 89.9971 448.237 89.9971Z" fill="white"/>
<path d="M434.275 89.9971H427.705C427.516 89.9971 427.422 89.9027 427.422 89.7139L427.479 49.8672C427.479 49.7161 427.554 49.6406 427.705 49.6406H434.219C434.37 49.6406 434.445 49.7161 434.445 49.8672L434.502 89.7139C434.502 89.9027 434.426 89.9971 434.275 89.9971Z" fill="white"/>
<path d="M404.519 89.9971H398.713C398.411 89.9971 398.26 89.8649 398.26 89.6006L398.203 50.0938C398.203 49.7917 398.354 49.6406 398.656 49.6406H403.896L413.694 72.4951L413.411 50.0938C413.411 49.7917 413.581 49.6406 413.921 49.6406H419.67C419.896 49.6406 420.01 49.7917 420.01 50.0938L420.066 89.6572C420.066 89.8838 419.972 89.9971 419.783 89.9971H414.686L404.632 68.6436L405.057 89.5439C405.057 89.846 404.877 89.9971 404.519 89.9971Z" fill="white"/>
<path d="M375.3 89.9971H369.494C369.192 89.9971 369.041 89.8649 369.041 89.6006L368.984 50.0938C368.984 49.7917 369.135 49.6406 369.438 49.6406H374.677L384.476 72.4951L384.192 50.0938C384.192 49.7917 384.362 49.6406 384.702 49.6406H390.451C390.678 49.6406 390.791 49.7917 390.791 50.0938L390.848 89.6572C390.848 89.8838 390.753 89.9971 390.564 89.9971H385.467L375.413 68.6436L375.838 89.5439C375.838 89.846 375.659 89.9971 375.3 89.9971Z" fill="white"/>
<path d="M350.653 90.5635C348.614 90.5635 346.726 90.0348 344.989 88.9775C343.252 87.9202 341.865 86.5042 340.826 84.7295C339.807 82.9359 339.297 80.9818 339.297 78.8672L339.41 49.8672C339.41 49.7161 339.486 49.6406 339.637 49.6406H346.15C346.301 49.6406 346.377 49.7161 346.377 49.8672V78.8672C346.377 80.1699 346.792 81.2839 347.623 82.209C348.454 83.1152 349.464 83.5684 350.653 83.5684C351.899 83.5684 352.938 83.1152 353.769 82.209C354.599 81.2839 355.015 80.1699 355.015 78.8672V49.8672C355.015 49.7161 355.09 49.6406 355.241 49.6406H361.755C361.906 49.6406 361.981 49.7161 361.981 49.8672L362.095 78.8672C362.095 81.0007 361.585 82.9642 360.565 84.7578C359.527 86.5326 358.149 87.9486 356.431 89.0059C354.713 90.0443 352.787 90.5635 350.653 90.5635Z" fill="white"/>
<path d="M316.477 89.9971H309.906C309.755 89.9971 309.68 89.9027 309.68 89.7139L309.793 49.8672C309.793 49.7161 309.868 49.6406 310.02 49.6406H321.744C323.84 49.6406 325.766 50.1504 327.521 51.1699C329.277 52.1895 330.674 53.5583 331.713 55.2764C332.77 56.9945 333.299 58.9391 333.299 61.1104C333.299 62.5264 333.082 63.8102 332.647 64.9619C332.213 66.1136 331.703 67.0859 331.118 67.8789C330.552 68.6719 330.033 69.2572 329.561 69.6348C331.656 71.957 332.704 74.6852 332.704 77.8193L332.761 89.7139C332.761 89.9027 332.666 89.9971 332.478 89.9971H325.907C325.756 89.9971 325.681 89.9404 325.681 89.8271V77.8193C325.681 76.4222 325.19 75.2139 324.208 74.1943C323.226 73.1748 322.018 72.665 320.583 72.665H316.76L316.703 89.7139C316.703 89.9027 316.628 89.9971 316.477 89.9971ZM321.744 56.5791H316.76V65.6982H321.744C322.934 65.6982 323.991 65.2546 324.916 64.3672C325.86 63.4798 326.332 62.3942 326.332 61.1104C326.332 59.8831 325.879 58.8258 324.973 57.9385C324.066 57.0322 322.99 56.5791 321.744 56.5791Z" fill="white"/>
<path d="M517.653 44.5645C515.595 44.5645 513.698 44.0358 511.961 42.9785C510.243 41.9212 508.865 40.5146 507.826 38.7588C506.807 36.9841 506.297 35.0394 506.297 32.9248V30.2627C506.297 30.055 506.391 29.9512 506.58 29.9512H513.094C513.245 29.9512 513.32 30.055 513.32 30.2627V32.9248C513.32 34.1898 513.745 35.2848 514.595 36.21C515.444 37.1162 516.464 37.5693 517.653 37.5693C518.862 37.5693 519.891 37.1068 520.74 36.1816C521.59 35.2376 522.015 34.152 522.015 32.9248C522.015 31.5088 521.09 30.2721 519.239 29.2148C518.937 29.026 518.541 28.7995 518.05 28.5352C517.578 28.252 517.011 27.931 516.351 27.5723C515.69 27.2135 515.048 26.8643 514.425 26.5244C513.802 26.1657 513.198 25.8258 512.612 25.5049C510.498 24.2588 508.921 22.7012 507.883 20.832C506.863 18.944 506.354 16.8294 506.354 14.4883C506.354 12.3359 506.882 10.3913 507.939 8.6543C508.997 6.9362 510.375 5.57682 512.074 4.57617C513.792 3.55664 515.652 3.04688 517.653 3.04688C519.711 3.04688 521.599 3.55664 523.317 4.57617C525.035 5.61458 526.404 6.99284 527.424 8.71094C528.462 10.429 528.981 12.3548 528.981 14.4883V19.2461C528.981 19.3971 528.906 19.4727 528.755 19.4727H522.241C522.09 19.4727 522.015 19.3971 522.015 19.2461L521.958 14.4883C521.958 13.1289 521.533 12.0244 520.684 11.1748C519.834 10.3252 518.824 9.90039 517.653 9.90039C516.464 9.90039 515.444 10.3535 514.595 11.2598C513.745 12.166 513.32 13.2422 513.32 14.4883C513.32 15.7533 513.585 16.8105 514.113 17.6602C514.661 18.5098 515.652 19.3216 517.087 20.0957C517.238 20.1712 517.587 20.36 518.135 20.6621C518.682 20.9642 519.286 21.304 519.947 21.6816C520.627 22.0404 521.241 22.3708 521.788 22.6729C522.336 22.9561 522.666 23.126 522.779 23.1826C524.705 24.2588 526.225 25.5804 527.339 27.1475C528.472 28.7145 529.038 30.6403 529.038 32.9248C529.038 35.1338 528.528 37.1162 527.509 38.8721C526.47 40.6279 525.092 42.0156 523.374 43.0352C521.656 44.0547 519.749 44.5645 517.653 44.5645Z" fill="white"/>
<path d="M484.289 43.9971H477.719C477.568 43.9971 477.492 43.9027 477.492 43.7139L477.605 3.86719C477.605 3.71615 477.681 3.64062 477.832 3.64062H489.557C491.652 3.64062 493.578 4.15039 495.334 5.16992C497.09 6.18945 498.487 7.55827 499.525 9.27637C500.583 10.9945 501.111 12.9391 501.111 15.1104C501.111 16.5264 500.894 17.8102 500.46 18.9619C500.026 20.1136 499.516 21.0859 498.931 21.8789C498.364 22.6719 497.845 23.2572 497.373 23.6348C499.469 25.957 500.517 28.6852 500.517 31.8193L500.573 43.7139C500.573 43.9027 500.479 43.9971 500.29 43.9971H493.72C493.569 43.9971 493.493 43.9404 493.493 43.8271V31.8193C493.493 30.4222 493.002 29.2139 492.021 28.1943C491.039 27.1748 489.83 26.665 488.396 26.665H484.572L484.516 43.7139C484.516 43.9027 484.44 43.9971 484.289 43.9971ZM489.557 10.5791H484.572V19.6982H489.557C490.746 19.6982 491.803 19.2546 492.729 18.3672C493.673 17.4798 494.145 16.3942 494.145 15.1104C494.145 13.8831 493.691 12.8258 492.785 11.9385C491.879 11.0322 490.803 10.5791 489.557 10.5791Z" fill="white"/>
<path d="M469.787 43.9971H451.039C450.888 43.9971 450.812 43.9027 450.812 43.7139L450.869 3.86719C450.869 3.71615 450.945 3.64062 451.096 3.64062H469.73C469.882 3.64062 469.957 3.73503 469.957 3.92383V10.4092C469.957 10.5602 469.882 10.6357 469.73 10.6357H457.836V19.6982H469.73C469.882 19.6982 469.957 19.7738 469.957 19.9248L470.014 26.4951C470.014 26.6462 469.938 26.7217 469.787 26.7217H457.836V36.8604H469.787C469.938 36.8604 470.014 36.9548 470.014 37.1436V43.7705C470.014 43.9216 469.938 43.9971 469.787 43.9971Z" fill="white"/>
<path d="M431.817 43.9468L421.424 44.0034C421.235 44.0034 421.141 43.909 421.141 43.7202L421.254 3.87354C421.254 3.72249 421.329 3.64697 421.48 3.64697L432.327 3.59033C434.479 3.53369 436.424 4.02458 438.161 5.06299C439.917 6.1014 441.314 7.50798 442.353 9.28271C443.41 11.0386 443.938 12.9832 443.938 15.1167V31.769C443.938 33.9969 443.4 36.036 442.324 37.8862C441.229 39.7176 439.775 41.1808 437.963 42.2759C436.15 43.3521 434.102 43.909 431.817 43.9468ZM432.327 10.5288L428.277 10.5854L428.221 36.8667H431.817C433.252 36.8667 434.461 36.3664 435.442 35.3657C436.424 34.3651 436.915 33.1662 436.915 31.769V15.0601C436.915 13.8328 436.462 12.7661 435.556 11.8599C434.649 10.9347 433.573 10.491 432.327 10.5288Z" fill="white"/>
<path d="M398.237 43.9971H392.432C392.13 43.9971 391.979 43.8649 391.979 43.6006L391.922 4.09375C391.922 3.79167 392.073 3.64062 392.375 3.64062H397.614L407.413 26.4951L407.13 4.09375C407.13 3.79167 407.3 3.64062 407.64 3.64062H413.389C413.615 3.64062 413.729 3.79167 413.729 4.09375L413.785 43.6572C413.785 43.8838 413.691 43.9971 413.502 43.9971H408.404L398.351 22.6436L398.775 43.5439C398.775 43.846 398.596 43.9971 398.237 43.9971Z" fill="white"/>
<path d="M373.591 44.5635C371.552 44.5635 369.664 44.0348 367.927 42.9775C366.19 41.9202 364.802 40.5042 363.764 38.7295C362.744 36.9359 362.234 34.9818 362.234 32.8672L362.348 3.86719C362.348 3.71615 362.423 3.64062 362.574 3.64062H369.088C369.239 3.64062 369.314 3.71615 369.314 3.86719V32.8672C369.314 34.1699 369.73 35.2839 370.561 36.209C371.391 37.1152 372.401 37.5684 373.591 37.5684C374.837 37.5684 375.875 37.1152 376.706 36.209C377.537 35.2839 377.952 34.1699 377.952 32.8672V3.86719C377.952 3.71615 378.028 3.64062 378.179 3.64062H384.692C384.843 3.64062 384.919 3.71615 384.919 3.86719L385.032 32.8672C385.032 35.0007 384.522 36.9642 383.503 38.7578C382.465 40.5326 381.086 41.9486 379.368 43.0059C377.65 44.0443 375.724 44.5635 373.591 44.5635Z" fill="white"/>
<path d="M344.819 44.5664C342.761 44.5664 340.864 44.0378 339.127 42.9805C337.409 41.9232 336.021 40.5166 334.964 38.7607C333.925 36.986 333.406 35.0413 333.406 32.9268L333.463 14.5469C333.463 12.3945 333.982 10.4593 335.021 8.74121C336.04 7.00423 337.418 5.61654 339.155 4.57812C340.892 3.52083 342.78 2.99219 344.819 2.99219C346.934 2.99219 348.831 3.51139 350.512 4.5498C352.211 5.58822 353.57 6.98535 354.59 8.74121C355.628 10.4782 356.147 12.4134 356.147 14.5469L356.204 32.9268C356.204 35.0413 355.694 36.9766 354.675 38.7324C353.636 40.5072 352.258 41.9232 350.54 42.9805C348.822 44.0378 346.915 44.5664 344.819 44.5664ZM344.819 37.5713C345.99 37.5713 347.009 37.0993 347.878 36.1553C348.746 35.1924 349.181 34.1162 349.181 32.9268L349.124 14.5469C349.124 13.263 348.718 12.1774 347.906 11.29C347.094 10.4027 346.065 9.95898 344.819 9.95898C343.63 9.95898 342.61 10.3932 341.761 11.2617C340.911 12.1302 340.486 13.2253 340.486 14.5469V32.9268C340.486 34.1917 340.911 35.2868 341.761 36.2119C342.61 37.1182 343.63 37.5713 344.819 37.5713Z" fill="white"/>
<path d="M316.477 43.9971H309.963C309.774 43.9971 309.68 43.9027 309.68 43.7139L309.793 3.86719C309.793 3.71615 309.868 3.64062 310.02 3.64062H328.598C328.786 3.64062 328.881 3.71615 328.881 3.86719V10.4092C328.881 10.5602 328.805 10.6357 328.654 10.6357H316.76V19.6416H328.654C328.805 19.6416 328.881 19.736 328.881 19.9248L328.938 26.4951C328.938 26.6462 328.843 26.7217 328.654 26.7217H316.76V43.7139C316.76 43.9027 316.665 43.9971 316.477 43.9971Z" fill="white"/>
</svg>
