<svg xmlns="http://www.w3.org/2000/svg" width="74" height="24" viewBox="0 0 74 24" fill="currentColor">
  <g clip-path="url(#clip0)">
    <path fill-rule="evenodd" clip-rule="evenodd" d="M41.9093 6.52178c.0429 0 .0977 0 .1405-.00974.7157-.07058 1.3551-.617 1.4634-1.29486.1084-.66688-.3465-1.22306-1.0406-1.29486-.0429 0-.0977-.00974-.1406-.00974s-.0976 0-.1405.00974c-.7156.07058-1.355.61702-1.4633 1.2949-.0548.35414.0428.66688.2488.91028.2167.24218.5418.39432.9323.39432z"/>
    <path fill-rule="evenodd" clip-rule="evenodd" d="M2.75077 16.0987c.49057.5975 1.21571.9334 2.05754.9334 1.72771 0 3.35779-1.3788 3.82693-3.1374.0429-.1521.075-.3042.0964-.4563.1381-.9116-.075-1.7476-.5763-2.3671-.49057-.5975-1.21571-.9334-2.05754-.9334-1.87655 0-3.63522 1.6174-3.92337 3.5925-.11669.8142.03214 1.5736.43698 2.1711.04287.0657.08574.1302.13813.1959m26.18363.8360c-.5227-.1411-.9704-.4235-1.3003-.847-.5012-.6182-.7037-1.4542-.5763-2.3561v-.0109c.0322-.2276.0858-.4238.1382-.5869.0202-.0535.0416-.1095.0619-.1643.0548-.1448.1107-.2945.1726-.443.0048-.0158.0131-.0292.0215-.0438.0084-.0134.0155-.0267.0215-.0438.0167-.0268.0298-.0547.0429-.0815.0131-.0268.0262-.0548.0428-.0816.0048-.0109.0107-.0194.0155-.0267.006-.0086.0107-.0159.0167-.0268.2345-.4016.5227-.7594.8525-1.0636.7037-.6292 1.5884-1.0199 2.5053-1.0199.4155 0 .8096.0864 1.1514.2386.3524.163.6501.3906.8954.6949.5013.6182.7037 1.4542.5763 2.367-.288 1.9751-2.0361 3.5925-3.902 3.5925-.256 0-.5012-.0329-.7358-.0974zm30.7583-.4454c1.0443-.6401 1.8444-1.7695 2.0254-3.0497.0322-.1741.0429-.3371.0429-.4990 0-.5428-.1179-1.0527-.3632-1.4871-.0631-.1303-.1488-.2495-.2453-.3688-.1917-.2276-.4155-.4235-.6715-.5756-.3942-.2385-.8633-.3578-1.3753-.3578-.7561 0-1.4920.2714-2.1218.7168-.5216.3797-.9693.8787-1.2896 1.4652-.2453.4344-.4048.9115-.4798 1.4116-.0536.337-.0536.662-.0107.9772v.0109c.075.5209.2667.9882.5763 1.3679.3083.3797.7251.6511 1.1942.8032.2656.0864.5537.1302.8526.1302.6394 0 1.2574-.185 1.8122-.5099 0-.0109.0107-.0109.0107-.0109.0108 0 .0322-.011.0429-.022zm12.5798-3.4866c.811 1.5419 1.7278 3.2895 1.7278 5.2001 0 2.8113-1.3336 4.4615-2.8148 5.3085-.5013.2495-1.0347.4126-1.536.488h-.1488c-.437 0-.8204-.3152-.9276-.7484-.0107-.0219-.0214-.0548-.0214-.0864-.0215-.0974-.0108-.1960 0-.2933.0643-.4126.3846-.7485.8108-.8142.6394-.0973 2.7291-.6511 2.7291-3.7884 0-1.0637-.437-2.1492-.9597-3.2129-.1381-.2908-.2905-.5804-.4393-.8652h-.0012l-.0024-.0049-.006-.0122c-.0321-.0608-.0631-.1204-.0952-.1801-.2239-.4344-.4370-.8579-.6394-1.2705-.0262-.0596-.056-.122-.0846-.1853-.0297-.062-.0595-.1253-.0857-.1856-.1072.2933-.2453.6621-.4393 1.0527-.2477.6438-.5239 1.3533-.7442 1.9192l-.0012.0012v.0049c-.2251.5756-.3906.9989-.3958 1.0489-.6621 1.6721-2.0576 2.6591-3.7531 2.6591-.0441 0-.0858-.0024-.1251-.006-.037-.0024-.0739-.0049-.1096-.0049-.0214 0-.0417-.0025-.0595-.005-.0155-.0024-.031-.0049-.0453-.0049-.0214 0-.0405-.0024-.0583-.0049-.0191-.0024-.0382-.0049-.0596-.0049-.043 0-.0752 0-.1181-.011-.0155-.0048-.031-.0085-.0477-.0109-.0155-.0025-.0321-.0061-.0476-.011-.0357 0-.063-.0073-.0964-.0158-.0071-.0012-.0142-.0037-.0213-.006-.0155-.0049-.0322-.0086-.0477-.011-.0155-.0024-.0322-.0049-.0476-.011-.0119-.0024-.0227-.006-.0334-.0085-.0095-.0024-.0167-.0049-.0251-.0073-.0119-.0037-.0238-.0073-.0357-.0098-.0083-.0024-.0155-.0036-.0238-.006-.0155-.005-.0346-.0111-.0524-.016-.0191-.0048-.0381-.011-.0536-.0158-.0322-.011-.0643-.022-.0964-.033-.6287-.2276-1.1622-.6292-1.5348-1.1829-.0429-.0658-.0858-.1412-.1286-.2167-.0631.0658-.1274.1303-.2025.185-.7668.6401-1.6836 1.1075-2.6540 1.3022-.3524.0657-.7144.1083-1.0775.1083-.287 0-.5644-.0219-.8312-.066-1.9706-.163-2.834-.5962-3.505-1.270-.342.358-.747.662-1.195.890-.437.217-.906.369-1.397.424h-.032c-.021.011-.053.011-.074.011-.118.011-.235.022-.353.022-.037 0-.073-.002-.110-.006-.037-.002-.073-.005-.110-.005-.077-.005-.154-.027-.228-.049-.1917-.131-.4155-.246-.607-.424-.096-.087-.183-.178-.271-.310-.167-.179-.326-.383-.441-.597-.341.929-.621 1.682-.855 2.367-.308.054-.621.097-.939.108h-.032c-.021.011-.049.011-.074.011-.116.011-.233.022-.351.022-.037 0-.073-.002-.110-.006-.037-.002-.073-.005-.110-.005-.021 0-.039-.003-.057-.005-.019-.002-.038-.005-.060-.005-.043 0-.075 0-.118-.011-.015-.005-.031-.009-.048-.011-.015-.002-.032-.006-.048-.011-.036 0-.063-.007-.097-.016-.007-.001-.014-.004-.021-.006-.016-.005-.032-.009-.048-.011-.015-.002-.032-.005-.047-.011-.012-.002-.023-.006-.034-.008-.010-.003-.017-.005-.025-.007-.012-.004-.024-.007-.036-.010-.008-.002-.016-.004-.024-.006-.015-.005-.035-.011-.052-.016-.019-.005-.038-.011-.054-.016-.032-.011-.064-.022-.096-.033-.629-.228-1.162-.629-1.535-1.183z"/>
  </g>
  <defs>
    <clipPath id="clip0">
      <rect width="74" height="24" fill="white"/>
    </clipPath>
  </defs>
</svg>