<svg xmlns="http://www.w3.org/2000/svg" viewBox="0 0 100 20" fill="currentColor">
  <path d="M45.2,0.1c0,0-7.6,13.8-8.6,15.6C35.6,13.9,28,0.1,28,0.1h-4.3l10.9,19.8h3.8L49.4,0.1H45.2z"/>
  <path d="M89.1,0.1h-3.8L74.4,19.9h4.3c0,0,7.6-13.8,8.6-15.6c1,1.8,8.6,15.6,8.6,15.6h4.3L89.1,0.1z"/>
  <path d="M21.8,5.8c0-4.5-2.4-5.7-6-5.7H0v19.8h3.8v-7.3h9.6c0.3,0.6,4,7.3,4,7.3h4.2c0,0-2.6-4.8-4.1-7.5C21.4,11.8,21.8,9.2,21.8,5.8z M18.1,7.3c-0.1,1-0.6,2-2.7,2H3.8V3.4h11.5c2,0,2.8,0.5,2.9,2.1C18.1,6.1,18.1,6.7,18.1,7.3z"/>
  <path d="M54.6,13.3c-0.2-2.3-0.2-4.5,0-6.6c0.2-2.4,1.2-3.3,3.9-3.3h12.9V0.1H58.2c-5,0-7.1,2.3-7.4,7.6c-0.1,1.6-0.1,3.2,0,4.7c0.3,5.3,2.3,7.6,7.4,7.6h13.6v-3.3H58.5C55.8,16.6,54.9,15.6,54.6,13.3z"/>
</svg>